<svg id="Layer_1" enable-background="new 0 0 512 512" height="512" viewBox="0 0 512 512" width="512" xmlns="http://www.w3.org/2000/svg"><g><path d="m202.01 30c-4.142 0-7.5 3.358-7.5 7.5s3.358 7.5 7.5 7.5 7.5-3.358 7.5-7.5-3.358-7.5-7.5-7.5zm-60 0c-4.142 0-7.5 3.358-7.5 7.5s3.358 7.5 7.5 7.5 7.5-3.358 7.5-7.5-3.358-7.5-7.5-7.5zm30 0c-4.142 0-7.5 3.358-7.5 7.5s3.358 7.5 7.5 7.5 7.5-3.358 7.5-7.5-3.358-7.5-7.5-7.5zm132.669 191.174 8.716 8.496-2.057 11.996c-.733 4.269.988 8.502 4.492 11.048 3.514 2.554 8.077 2.869 11.896.86l10.773-5.665 10.773 5.664c3.831 2.016 8.391 1.687 11.896-.86 3.504-2.546 5.226-6.779 4.492-11.047l-2.057-11.997 8.715-8.496c3.103-3.023 4.197-7.46 2.859-11.58-1.339-4.119-4.832-7.064-9.117-7.687l-12.047-1.751-5.387-10.914c-1.916-3.884-5.797-6.297-10.129-6.297s-8.213 2.413-10.129 6.296l-5.387 10.915-12.046 1.751c-4.286.623-7.779 3.568-9.118 7.687-1.335 4.122-.24 8.558 2.862 11.581zm22.387-6.452c3.681-.533 6.86-2.844 8.507-6.179l2.927-5.93 2.927 5.93c1.646 3.336 4.826 5.646 8.504 6.179l6.545.951-4.735 4.617c-2.662 2.595-3.877 6.332-3.248 9.997l1.117 6.518-5.855-3.079c-3.289-1.728-7.218-1.727-10.511.001l-5.853 3.077 1.118-6.519c.628-3.664-.587-7.401-3.249-9.997l-4.735-4.616zm172.434 207.278h-10v-338.19c0-20.678-16.822-37.5-37.5-37.5h-44.51v-26.81c0-10.752-8.748-19.5-19.5-19.5h-263.98c-10.752 0-19.5 8.748-19.5 19.5v26.81h-44.51c-20.678 0-37.5 16.822-37.5 37.5v338.19h-10c-6.893 0-12.5 5.607-12.5 12.5v34.549c0 23.683 19.268 42.951 42.951 42.951h286.634c4.143 0 7.5-3.358 7.5-7.5s-3.357-7.5-7.5-7.5h-286.634c-15.412 0-27.951-12.539-27.951-27.951v-32.049h190.545v12.5c0 9.649 7.851 17.5 17.5 17.5h65.91c9.649 0 17.5-7.851 17.5-17.5v-12.5h190.545v32.049c0 15.412-12.539 27.951-27.951 27.951h-104.464c-4.143 0-7.5 3.358-7.5 7.5s3.357 7.5 7.5 7.5h104.464c23.683 0 42.951-19.268 42.951-42.951v-34.549c0-6.893-5.607-12.5-12.5-12.5zm-92.01-330.69h37.01v282.42h-37.01zm-287.98-71.81c0-2.481 2.019-4.5 4.5-4.5h263.98c2.481 0 4.5 2.019 4.5 4.5v40.5h-272.98zm0 55.5h272.98v298.73h-272.98zm171.945 374.5c0 1.378-1.121 2.5-2.5 2.5h-65.91c-1.379 0-2.5-1.122-2.5-2.5v-12.5h70.91zm183.045-27.5h-437v-338.19c0-12.407 10.094-22.5 22.5-22.5h44.51v15h-40.51c-6.341 0-11.5 5.159-11.5 11.5v41.751c0 4.142 3.357 7.5 7.5 7.5s7.5-3.358 7.5-7.5v-38.251h37.01v282.42h-37.01v-209.168c0-4.142-3.357-7.5-7.5-7.5s-7.5 3.358-7.5 7.5v212.668c0 6.341 5.159 11.5 11.5 11.5h384c6.341 0 11.5-5.159 11.5-11.5v-289.42c0-6.341-5.159-11.5-11.5-11.5h-40.51v-15h44.51c12.406 0 22.5 10.093 22.5 22.5zm-126.559-102.912h-183.882c-4.143 0-7.5 3.358-7.5 7.5s3.357 7.5 7.5 7.5h183.883c4.143 0 7.5-3.358 7.5-7.5s-3.358-7.5-7.501-7.5zm22.049-30h-227.98c-4.143 0-7.5 3.358-7.5 7.5s3.357 7.5 7.5 7.5h227.98c4.143 0 7.5-3.358 7.5-7.5s-3.357-7.5-7.5-7.5zm-144.067-117.044-2.852 16.628c-.805 4.687 1.085 9.335 4.932 12.13 3.849 2.796 8.854 3.16 13.063.945l14.934-7.851 14.935 7.852c4.195 2.206 9.204 1.859 13.063-.945 3.847-2.795 5.736-7.444 4.932-12.129l-2.852-16.629 12.081-11.776c3.406-3.319 4.609-8.191 3.14-12.713-1.469-4.523-5.306-7.758-10.013-8.442l-16.696-2.426-7.467-15.13s0 0-.001-.001c-2.104-4.264-6.366-6.913-11.121-6.913s-9.017 2.649-11.122 6.914l-7.467 15.13-16.697 2.426c-4.706.684-8.543 3.918-10.012 8.442-1.47 4.522-.267 9.394 3.139 12.712zm14.996-20.71c4.041-.587 7.532-3.123 9.339-6.784l5.742-11.636 5.742 11.635c1.807 3.662 5.298 6.198 9.339 6.785l12.839 1.866-9.292 9.058c-2.922 2.85-4.255 6.953-3.565 10.977l2.192 12.788-11.484-6.038c-3.613-1.899-7.929-1.9-11.542 0l-11.483 6.038 2.193-12.789c.688-4.023-.645-8.126-3.567-10.977l-9.291-9.057zm-92.524 78.336-2.057 11.996c-.733 4.269.988 8.502 4.492 11.048 3.515 2.554 8.077 2.869 11.896.86l10.773-5.665 10.773 5.664c3.832 2.016 8.391 1.687 11.896-.86 3.504-2.546 5.226-6.779 4.492-11.047l-2.057-11.997 8.715-8.496c3.103-3.023 4.197-7.46 2.859-11.58-1.339-4.119-4.832-7.064-9.117-7.687l-12.047-1.751-5.387-10.914c-1.916-3.884-5.797-6.297-10.129-6.297s-8.213 2.413-10.129 6.296l-5.387 10.915-12.046 1.751c-4.286.623-7.779 3.568-9.118 7.687-1.338 4.12-.243 8.556 2.858 11.579zm13.671-14.948c3.681-.533 6.86-2.844 8.507-6.179l2.927-5.93 2.927 5.93c1.646 3.336 4.826 5.646 8.504 6.179l6.545.951-4.735 4.617c-2.662 2.595-3.877 6.332-3.248 9.997l1.117 6.518-5.855-3.079c-3.289-1.728-7.218-1.727-10.511.001l-5.853 3.077 1.118-6.519c.628-3.664-.587-7.401-3.249-9.997l-4.735-4.616z"/></g></svg>