<?xml version="1.0" encoding="utf-8"?>
<!-- Generator: Adobe Illustrator 22.0.0, SVG Export Plug-In . SVG Version: 6.00 Build 0)  -->
<svg version="1.1" id="Слой_1" xmlns="http://www.w3.org/2000/svg" xmlns:xlink="http://www.w3.org/1999/xlink" x="0px" y="0px"  width="127px"
	 viewBox="0 0 255.1 56.7" style="enable-background:new 0 0 255.1 56.7;" xml:space="preserve">
<style type="text/css">
	.st0{fill:#F2BA1D;}
	.st1{fill:#EF3B0A;}
	.st2{enable-background:new    ;}
	.st3{fill:#07056D;}
</style>
<g>
	<g>
		<path class="st0" d="M26.1,30.9c-2.9-0.7-5.3-0.9-6.8-1c-3.1-0.2-4.3,0.2-6.1-1.4c-1.8-1.6-2.8-4-3.8-6.2
			C7.6,18.1,6.7,14,6.3,10.9c0,0,12.8-0.2,15.3,3.9C24.1,18.7,26.1,30.9,26.1,30.9z"/>
		<path class="st1" d="M47.2,8.3c-1,3.2-1.6,5.8-1.9,7.5c-0.6,3.4-0.4,4.7-2.1,6.7c-1.7,2-4,3.3-6.2,4.4c-4,2.2-7.9,3.3-10.8,3.9
			c0,0,1.6-13.9,5.6-16.8C35.9,10.9,47.2,8.3,47.2,8.3z"/>
		<path class="st1" d="M4.7,49.9c1.4-3.2,2.2-5.8,2.8-7.5c1-3.5,1.1-4.9,2.8-6.6c1.7-1.7,3.9-2.6,5.9-3.3c3.7-1.4,7.2-1.7,9.7-1.7
			c0,0-3.6,14.4-7.4,16.7C14.5,49.6,4.7,49.9,4.7,49.9z"/>
		<path class="st0" d="M43.3,50.8c-3-0.9-5.4-1.4-7.1-1.7c-3.3-0.5-4.6-0.3-6.2-1.9c-1.6-1.6-2.3-3.9-2.9-6
			c-1.2-3.9-1.4-7.7-1.2-10.5c0,0,13.6,1.2,15.6,5.1C43.5,39.8,43.3,50.8,43.3,50.8z"/>
	</g>
	<g class="st2">
		<path class="st3" d="M58.2,46.2V13.8H78v3.7H62.7v9.8h13v3.8h-13v11.4h16.4v3.7C79.1,46.2,58.2,46.2,58.2,46.2z"/>
		<path class="st3" d="M84.4,46.2V13.8h8.8c9.7,0,14.6,5.2,14.6,15.6c0,4.8-1.1,8.7-3.2,11.6c-1.3,1.9-3,3.2-4.9,4s-4.5,1.2-7.8,1.2
			C91.9,46.2,84.4,46.2,84.4,46.2z M88.9,42.5h2.3c4.3,0,7.4-0.9,9.2-2.8s2.7-5.1,2.7-9.5c0-4.5-0.8-7.7-2.5-9.7
			c-1.6-1.9-4.4-2.9-8.2-2.9h-3.5V42.5z"/>
		<path class="st3" d="M113.1,13.8h4.5v19.7c0,3.4,0.5,5.9,1.5,7.5c1,1.5,2.6,2.3,4.8,2.3c2.3,0,4-0.8,5-2.3s1.5-4.1,1.5-7.6V13.8
			h3.9v18.8c0,4.1-0.4,7-1.3,8.7c-1.8,3.8-4.9,5.6-9.1,5.6c-3.7,0-6.4-1.1-8.1-3.3s-2.6-5.6-2.6-10.3L113.1,13.8L113.1,13.8z"/>
		<path class="st3" d="M164.2,45.2c-3,1.2-5.9,1.8-8.5,1.8c-4.7,0-8.4-1.5-11.3-4.6c-2.8-3.1-4.3-7.2-4.3-12.2
			c0-5.1,1.4-9.2,4.2-12.4s6.5-4.7,11.1-4.7c2.6,0,5.4,0.5,8.3,1.5v4.5c-3-1.5-5.8-2.3-8.5-2.3c-3,0-5.5,1.2-7.5,3.7
			s-2.9,5.6-2.9,9.4c0,3.8,1.1,7,3.3,9.4s5,3.7,8.5,3.7c2.1,0,4.6-0.6,7.4-1.8v4H164.2z"/>
		<path class="st3" d="M166.3,46.2l11.6-32.4h4.5L194,46.2h-4.8l-2.8-8.1H173l-2.8,8.1H166.3z M174.4,34.4h10.7l-5.4-15.5
			L174.4,34.4z"/>
		<path class="st3" d="M206.1,46.2V17.6h-11.3v-3.7h27.1v3.7h-11.3v28.7h-4.5V46.2z"/>
		<path class="st3" d="M227.4,46.2V13.8h19.8v3.7h-15.3v9.8h13v3.8h-13v11.4h16.4v3.7C248.3,46.2,227.4,46.2,227.4,46.2z"/>
	</g>
</g>
</svg>
