<?xml version="1.0" encoding="utf-8"?>
<!-- Generator: Adobe Illustrator 19.2.1, SVG Export Plug-In . SVG Version: 6.00 Build 0)  -->
<svg xmlns="http://www.w3.org/2000/svg" xmlns:xlink="http://www.w3.org/1999/xlink" version="1.1" id="Layer" x="0px" y="0px" width="512" height="512" viewBox="0 0 64 64" enable-background="new 0 0 64 64" xml:space="preserve">
<polygon fill="#CCE4FF" points="46,10 32,24 18,10 10,18 24,32 10,46 18,54 32,40 46,54 54,46 40,32 54,18 "/>
<path fill="#007AFF" d="M54.707,17.293l-8-8c-0.391-0.391-1.023-0.391-1.414,0L32,22.586L18.707,9.293  c-0.391-0.391-1.023-0.391-1.414,0l-8,8c-0.391,0.391-0.391,1.023,0,1.414L22.586,32L9.293,45.293c-0.391,0.391-0.391,1.023,0,1.414  l8,8c0.391,0.391,1.023,0.391,1.414,0L32,41.414l13.293,13.293C45.488,54.902,45.744,55,46,55s0.512-0.098,0.707-0.293l8-8  c0.391-0.391,0.391-1.023,0-1.414L41.414,32l13.293-13.293C55.098,18.316,55.098,17.684,54.707,17.293z M39.293,31.293  c-0.391,0.391-0.391,1.023,0,1.414L52.586,46L46,52.586L32.707,39.293C32.512,39.098,32.256,39,32,39s-0.512,0.098-0.707,0.293  L18,52.586L11.414,46l13.293-13.293c0.391-0.391,0.391-1.023,0-1.414L11.414,18L18,11.414l13.293,13.293  c0.391,0.391,1.023,0.391,1.414,0L46,11.414L52.586,18L39.293,31.293z"/>
</svg>
